<svg width="357" height="104" viewBox="0 0 357 104" fill="none" xmlns="http://www.w3.org/2000/svg">
<path d="M45.7122 7.9552C45.3663 8.04496 45.4315 8.5316 45.8723 9.15288C45.9577 9.27784 46.1029 9.5436 46.5042 10.3198C46.5587 10.4306 46.7295 10.7809 46.8799 11.0968C47.0304 11.4127 47.2557 11.8888 47.3807 12.1493C47.5056 12.4098 47.6209 12.6755 47.6411 12.7354C47.6561 12.7952 47.8268 13.171 48.0169 13.567C48.3575 14.2842 48.5335 14.549 48.7385 14.6696C48.8186 14.7145 51.5395 14.7347 61.0699 14.755C72.6851 14.7796 73.3063 14.7849 73.5219 14.8702C73.6478 14.9204 74.0086 15.0251 74.3236 15.1008C76.5835 15.657 78.6787 17.9265 79.1698 20.3518C79.2947 20.9836 79.2947 22.697 79.1645 23.3983C79.0642 23.9545 78.7184 24.9066 78.4632 25.3273C78.3681 25.4778 78.2475 25.703 78.1824 25.8236C77.7512 26.6851 76.6389 27.7825 75.597 28.3844C75.0408 28.7047 73.5624 29.2107 72.9614 29.2864C72.6903 29.3163 69.8391 29.3366 64.773 29.3366C56.4851 29.3366 55.0675 29.3559 54.9522 29.4712C54.8369 29.5918 54.8668 29.707 55.2276 30.4533C55.4177 30.8449 55.6236 31.2858 55.6791 31.4257C55.7336 31.5709 55.8489 31.8067 55.929 31.9519C56.0091 32.0971 56.1296 32.3523 56.1895 32.5178C56.2502 32.6832 56.3505 32.9094 56.4156 33.0194C56.4755 33.1294 56.5758 33.345 56.6356 33.4954C56.7359 33.7559 57.0369 34.3974 57.4329 35.1886C57.5323 35.3892 57.6731 35.625 57.7435 35.7148L57.8782 35.875L61.2503 35.9154C63.1098 35.9357 66.7477 35.9304 69.3384 35.9058C74.0332 35.8556 74.4389 35.8653 75.0602 36.021C75.2212 36.0606 75.6014 36.1407 75.9023 36.2014C76.8844 36.3968 78.1323 36.9829 78.9938 37.6596C79.5755 38.1154 80.4819 39.1424 80.7124 39.6088C80.7626 39.7038 80.8629 39.8737 80.9386 39.9846C81.0134 40.0946 81.1339 40.3401 81.2035 40.5354C81.2739 40.7255 81.3891 41.0168 81.4595 41.1717C81.7552 41.8378 81.9303 43.1508 81.8503 44.1382C81.735 45.511 81.4798 46.398 80.8779 47.4505C80.1519 48.723 78.9894 49.8054 77.7811 50.3316C77.5462 50.4372 77.2452 50.5718 77.115 50.6326C76.9795 50.6924 76.5289 50.8174 76.1127 50.9124C75.0452 51.1535 74.2391 51.1834 69.1325 51.1685L64.8935 51.1579L64.7985 51.2785C64.6577 51.4536 64.6832 51.6446 64.8839 51.9402C64.9842 52.0907 65.1091 52.331 65.1593 52.4814C65.2139 52.6319 65.3247 52.8774 65.4048 53.0226C65.4902 53.1731 65.6055 53.4186 65.6653 53.5788C65.7251 53.7337 65.836 53.9695 65.9161 54.0998C65.9962 54.2247 66.1115 54.4658 66.181 54.626C66.2461 54.7862 66.3772 55.0519 66.4767 55.2121C66.577 55.3775 66.6571 55.5377 66.6571 55.5632C66.6527 55.6829 67.5943 57.4772 67.7395 57.6321L67.8952 57.7975H71.9837C76.7947 57.7975 76.8642 57.7922 78.6532 57.3267C79.0395 57.2264 79.5253 57.0715 79.7303 56.9906C79.9407 56.9061 80.2566 56.7855 80.437 56.7204C80.8735 56.5646 81.8098 56.1194 82.0104 55.9742C82.0958 55.909 82.2559 55.8087 82.3659 55.748C82.5719 55.638 83.0532 55.3177 83.4439 55.0317C84.0696 54.5706 85.739 52.8273 86.2547 52.0951C86.6559 51.5187 87.1162 50.7628 87.2016 50.5322C87.242 50.4372 87.3318 50.241 87.4119 50.101C87.5879 49.7807 87.9434 48.7828 88.3491 47.4355C88.8155 45.9017 88.9404 43.3013 88.6395 41.3521C88.3341 39.373 87.4374 37.173 86.2951 35.6198C85.3025 34.2619 83.539 32.7131 82.3263 32.1376C81.7552 31.8666 81.6496 31.6158 81.9805 31.2954C82.0861 31.1951 82.3061 30.9998 82.4768 30.8546C82.8922 30.499 83.634 29.5618 84.1154 28.7901C84.1955 28.6651 84.3204 28.4698 84.3961 28.3589C84.8115 27.7429 85.4583 26.2592 85.6686 25.4276C85.7337 25.1671 85.8437 24.7914 85.9141 24.6013C86.2397 23.694 86.34 21.1737 86.1244 19.3398C86.0795 18.979 86.0347 18.6428 86.0188 18.5882C86.0039 18.5328 85.9194 18.2371 85.8235 17.937C85.7337 17.6308 85.6131 17.2251 85.5586 17.035C85.4433 16.6285 85.1626 15.9122 84.947 15.481C84.8669 15.3164 84.7314 15.0357 84.6513 14.8553C83.7845 12.9712 81.5044 10.6462 79.5455 9.64832C79.3845 9.56824 79.1495 9.44328 79.0087 9.37288C77.7116 8.70672 76.6943 8.39608 74.9757 8.13032L73.8977 7.96488L64.1517 7.9552C58.7907 7.94464 52.482 7.93496 50.1368 7.92528C47.7863 7.92 45.7975 7.92968 45.7122 7.9552Z" fill="white"/>
<path d="M32.6833 8.05024C32.443 8.1708 32.2926 8.37584 32.1025 8.84224C32.0321 9.02264 31.9318 9.2224 31.8869 9.2928C31.8068 9.41336 31.4258 10.1746 30.9048 11.2719C30.7746 11.5482 30.529 12.0639 30.3539 12.4247C29.7925 13.5819 29.3516 14.5191 28.7655 15.7573C28.63 16.0477 28.4742 16.3636 28.4197 16.4586C28.3642 16.5537 28.2542 16.779 28.1689 16.9594C27.9137 17.5155 27.5177 18.3278 27.4068 18.5381C27.222 18.8883 27.1314 19.074 26.8207 19.7402C26.6509 20.0966 26.4652 20.482 26.4054 20.592C26.225 20.9334 26.1343 21.1182 25.8184 21.795C25.653 22.1505 25.4382 22.5966 25.3423 22.7823C25.2473 22.9671 25.117 23.2478 25.0625 23.4089C25.0018 23.569 24.9014 23.789 24.8363 23.8999C24.7765 24.0099 24.6762 24.2255 24.6163 24.3751C24.5609 24.5256 24.4104 24.8662 24.2802 25.1275C24.1552 25.388 23.9449 25.8289 23.8146 26.1043C23.6791 26.3798 23.4635 26.8409 23.3236 27.1313C23.0077 27.7983 22.3917 29.0558 22.2658 29.2864C22.1761 29.4562 21.9253 29.9728 21.3594 31.1652C21.0585 31.7962 20.7276 32.4931 20.3615 33.2446C20.2216 33.535 20.1063 33.7911 20.1063 33.8158C20.1063 33.8413 19.9708 34.1466 19.801 34.4925C19.6355 34.8383 19.3997 35.3241 19.28 35.5749C19.1647 35.8204 18.7388 36.6925 18.3375 37.5038C17.9371 38.3152 17.4804 39.263 17.3255 39.6088C17.1698 39.9538 16.9542 40.4149 16.8494 40.6358C16.7438 40.8558 16.5441 41.2817 16.398 41.5879C16.2528 41.888 16.0328 42.3641 15.8973 42.6404C15.767 42.9158 15.5418 43.3866 15.3966 43.692C15.2505 43.993 14.8747 44.7744 14.5597 45.4212C13.7272 47.1249 13.5574 47.4751 13.4474 47.7259C13.3919 47.8509 13.3013 48.0313 13.2467 48.1272C13.1913 48.2222 13.0109 48.6077 12.841 48.979C12.6703 49.3495 12.4248 49.8802 12.2893 50.1565C12.1546 50.4319 12.0341 50.7126 12.0138 50.7822C11.9936 50.8526 11.9135 51.018 11.8387 51.1579C11.7586 51.2934 11.6478 51.5293 11.5932 51.6745C11.4577 52.0203 10.5962 53.739 10.1702 54.516C10.1245 54.5961 9.95991 54.9463 9.80943 55.2922C9.65367 55.638 9.39319 56.1845 9.22775 56.5101C8.90215 57.156 8.86167 57.3672 9.03767 57.5274C9.14239 57.6171 9.26295 57.6224 12.6853 57.6074C15.0155 57.6022 16.2933 57.5775 16.4332 57.5423C16.6937 57.4719 16.9146 57.2466 17.0448 56.9105C17.1002 56.7653 17.205 56.5602 17.2701 56.4494C17.3405 56.3394 17.4558 56.1088 17.5262 55.9337C17.5957 55.763 17.711 55.5324 17.7761 55.433C17.8465 55.3274 17.9468 55.1223 18.0022 54.9762C18.0568 54.8363 18.1923 54.5354 18.2979 54.3154C18.693 53.5084 18.994 52.8572 19.0292 52.7366C19.0494 52.6662 19.1594 52.4207 19.28 52.1858C19.3953 51.9499 19.5202 51.6692 19.5554 51.5592C19.5906 51.4492 19.6804 51.2433 19.7605 51.1086C19.8362 50.9678 19.9514 50.7276 20.0113 50.5622C20.0966 50.3263 20.6625 49.1841 21.3542 47.8509C21.4096 47.7409 21.605 47.3352 21.7854 46.9489C21.9702 46.5634 22.206 46.0671 22.3107 45.8471C22.4216 45.6262 22.5615 45.3209 22.6266 45.1651C22.7674 44.8448 22.9778 44.6591 23.313 44.5641C23.504 44.5139 42.6598 44.4242 44.3838 44.4638C45.2057 44.484 45.3755 44.213 44.9496 43.5618C44.8396 43.3866 44.6891 43.1112 44.624 42.9458C44.5589 42.7856 44.4093 42.4697 44.294 42.2444C44.1734 42.0235 44.0432 41.7481 43.9983 41.6381C43.9526 41.5272 43.8575 41.3371 43.7871 41.2122C43.7176 41.0863 43.5117 40.6604 43.3313 40.26C43.1509 39.8587 42.9256 39.3879 42.8306 39.2075C42.7399 39.0271 42.615 38.757 42.5595 38.6065C42.4398 38.2809 42.2093 37.9852 41.9884 37.8699C41.8432 37.7995 41.1515 37.7942 34.2118 37.8092C27.0011 37.8294 26.5858 37.8242 26.4555 37.7397C26.1748 37.5593 26.1695 37.5839 27.2766 35.3241C27.4121 35.0486 27.5221 34.8031 27.5221 34.7776C27.5221 34.7327 28.0483 33.6257 28.2393 33.2702C28.3942 32.9745 28.4848 32.7888 28.85 32.017C29.0357 31.6316 29.2161 31.2602 29.2513 31.1898C29.517 30.6891 30.0178 29.6322 30.0978 29.3964C30.1383 29.2864 30.2281 29.106 30.2985 28.9907C30.3733 28.8754 30.4789 28.6695 30.5343 28.5243C30.5889 28.3844 30.7244 28.0984 30.8344 27.8881C30.94 27.683 31.0298 27.4921 31.0298 27.4674C31.0298 27.4419 31.1556 27.1568 31.3105 26.8356C31.4662 26.5153 31.6862 26.0489 31.8068 25.8034C31.9221 25.5534 32.1227 25.1372 32.2477 24.8767C32.5935 24.1498 33.1145 23.0578 33.4102 22.4462C33.5554 22.1408 33.7657 21.7052 33.8766 21.4694C33.9866 21.2335 34.1766 20.8278 34.3025 20.5674C34.4222 20.3069 34.5427 20.0358 34.563 19.9663C34.5823 19.8959 34.6826 19.6706 34.7882 19.4647C35.1693 18.7132 35.4394 18.1271 35.5301 17.8614C35.7554 17.1952 36.2262 17.3554 36.5421 18.2072C36.6019 18.363 36.7577 18.7132 36.8923 18.9886C37.3235 19.881 37.8445 20.9378 37.9703 21.1684C38.0354 21.2942 38.1551 21.5292 38.2352 21.6946C38.3153 21.8601 38.4306 22.0854 38.486 22.1962C38.5414 22.3062 38.7113 22.6565 38.8618 22.9724C39.0122 23.2883 39.2375 23.7644 39.3678 24.0302C39.4936 24.295 39.5983 24.5256 39.5983 24.5458C39.5983 24.5661 39.7242 24.8468 39.879 25.1671C40.0348 25.4883 40.2803 26.0137 40.4352 26.3296C40.701 26.8858 40.7863 27.0618 40.9262 27.3319C41.067 27.6021 42.6097 30.749 42.8957 31.3403C43.0611 31.6862 43.4017 32.3928 43.6569 32.919C44.1233 33.8765 44.5395 34.738 44.9346 35.5749C45.291 36.3317 46.0971 37.9201 46.5081 38.6813C46.5688 38.7913 46.6691 39.0069 46.7386 39.1574C46.8038 39.3078 46.9041 39.5129 46.9595 39.6088C47.0994 39.8587 47.6662 41.0362 47.6662 41.0766C47.6662 41.1118 47.9416 41.7032 48.3728 42.5946C48.4775 42.8155 48.5981 43.0857 48.6377 43.1966C48.7486 43.4966 49.5098 45.0349 49.9806 45.8973C50.0862 46.0874 51.0682 48.1017 51.444 48.9034C51.6042 49.2342 51.8048 49.6505 51.8998 49.8309C51.9905 50.0113 52.1102 50.2718 52.1709 50.4117C52.2254 50.5569 52.3363 50.7822 52.4164 50.9124C52.5018 51.0479 52.5818 51.2134 52.6012 51.2838C52.7217 51.7044 55.6134 57.4622 55.7938 57.6321L55.939 57.7729L59.5866 57.7878L63.2342 57.8028L63.3698 57.6928C63.5352 57.5626 63.5255 57.4068 63.3293 57.1111C63.2598 57.0064 63.1541 56.7855 63.0996 56.6254C63.0441 56.4599 62.9438 56.2346 62.8787 56.1238C62.8136 56.0085 62.7133 55.7938 62.6578 55.6433C62.5478 55.3476 62.0973 54.4509 61.6212 53.5885C61.3202 53.0376 60.8494 52.1057 60.4438 51.2582C60.3135 50.9828 60.068 50.4715 59.8973 50.1266C59.7265 49.7807 59.5919 49.4798 59.5919 49.4595C59.5919 49.3794 58.3335 46.8336 57.6471 45.5215C57.4975 45.2302 57.267 44.7894 57.1367 44.5438C57.0065 44.2939 56.841 43.978 56.7706 43.8425C56.695 43.7026 56.5102 43.3215 56.3544 42.9906C56.2039 42.6598 55.9786 42.1837 55.859 41.9382C55.7331 41.6882 55.5228 41.2271 55.3776 40.9112C54.8918 39.8235 54.5258 39.0324 54.4457 38.8819C54.4008 38.7966 54.2503 38.5062 54.1051 38.2307C53.9643 37.9553 53.7338 37.5135 53.5938 37.253C53.453 36.9926 53.2929 36.6872 53.2383 36.5772C52.977 36.0809 51.1237 32.3074 51.1237 32.2722C51.1237 32.2476 50.9978 31.9669 50.843 31.6466C50.6872 31.3254 50.447 30.829 50.3114 30.5386C50.1759 30.2482 50.0061 29.9121 49.941 29.7871C49.8706 29.6622 49.75 29.4166 49.6655 29.2362C49.5854 29.0558 49.4851 28.8552 49.4446 28.7848C49.3998 28.7153 49.1842 28.2894 48.9633 27.8326C48.738 27.3768 48.342 26.5751 48.0868 26.0489C47.8263 25.5279 47.616 25.0774 47.616 25.0518C47.616 25.0272 47.5157 24.801 47.3951 24.5511C46.9542 23.6386 46.6691 23.0375 46.5838 22.8272C46.5389 22.7119 46.4034 22.4418 46.2828 22.2306C46.1622 22.0202 46.0628 21.8249 46.0628 21.8002C46.0628 21.7747 45.9722 21.6049 45.8674 21.4245C45.7566 21.2441 45.6263 20.9933 45.5814 20.8683C45.5313 20.7425 45.431 20.5418 45.3606 20.4169C45.291 20.2919 45.2004 20.1115 45.1652 20.0165C45.1256 19.9206 44.9698 19.58 44.8194 19.2641C44.6698 18.949 44.4392 18.4624 44.309 18.187C44.1787 17.9115 43.8681 17.27 43.6173 16.7587C43.3718 16.2483 43.0162 15.5162 42.8306 15.1307C42.6502 14.7444 42.4548 14.3493 42.4046 14.2534C42.204 13.8926 41.3372 12.1141 40.7661 10.8962C40.6411 10.6357 40.4405 10.215 40.3199 9.96952C40.1994 9.71872 39.9741 9.23824 39.8192 8.8924C39.6634 8.54656 39.5033 8.22536 39.4584 8.1708C39.2525 7.94024 39.2278 7.93496 35.971 7.94024C32.964 7.94464 32.8936 7.94992 32.6833 8.05024Z" fill="white"/>
<path d="M135.347 13.2H133.347V90.64H135.347V13.2Z" fill="white"/>
<path d="M168.067 35.37L176.707 14.37H179.107L187.687 35.37H183.967L177.247 18.36H178.507L171.727 35.37H168.067ZM172.327 31.32V28.32H183.457V31.32H172.327ZM196.687 35.37V14.37H199.087L200.137 18.33V35.37H196.687ZM211.237 35.37L198.667 18.96L199.087 14.37L211.657 30.78L211.237 35.37ZM211.237 35.37L210.187 31.68V14.37H213.637V35.37H211.237ZM226.567 35.37V32.22H232.087C233.527 32.22 234.791 31.91 235.877 31.29C236.971 30.67 237.821 29.8067 238.427 28.7C239.041 27.5867 239.347 26.3 239.347 24.84C239.347 23.4 239.037 22.13 238.417 21.03C237.797 19.93 236.941 19.07 235.847 18.45C234.761 17.83 233.507 17.52 232.087 17.52H226.567V14.37H232.177C233.697 14.37 235.107 14.6367 236.407 15.17C237.707 15.6967 238.841 16.4367 239.807 17.39C240.781 18.3367 241.537 19.4467 242.077 20.72C242.617 21.9867 242.887 23.37 242.887 24.87C242.887 26.35 242.617 27.73 242.077 29.01C241.537 30.29 240.787 31.4067 239.827 32.36C238.867 33.3067 237.737 34.0467 236.437 34.58C235.137 35.1067 233.737 35.37 232.237 35.37H226.567ZM224.197 35.37V14.37H227.647V35.37H224.197ZM254.767 26.46V23.61H260.077C261.137 23.61 261.961 23.3367 262.547 22.79C263.141 22.2367 263.437 21.47 263.437 20.49C263.437 19.61 263.147 18.87 262.567 18.27C261.987 17.67 261.167 17.37 260.107 17.37H254.767V14.37H260.257C261.577 14.37 262.737 14.6367 263.737 15.17C264.737 15.6967 265.514 16.4167 266.067 17.33C266.614 18.2367 266.887 19.27 266.887 20.43C266.887 21.65 266.614 22.71 266.067 23.61C265.514 24.51 264.737 25.21 263.737 25.71C262.737 26.21 261.577 26.46 260.257 26.46H254.767ZM252.397 35.37V14.37H255.847V35.37H252.397ZM263.917 35.37L256.567 26.25L259.777 25.08L268.267 35.37H263.917ZM277.237 35.37V14.37H280.687V35.37H277.237ZM279.607 35.37V32.22H291.367V35.37H279.607ZM279.607 26.16V23.13H290.347V26.16H279.607ZM279.607 17.52V14.37H291.217V17.52H279.607ZM310.597 35.67C309.097 35.67 307.697 35.39 306.397 34.83C305.097 34.27 303.957 33.4967 302.977 32.51C301.997 31.5167 301.234 30.3667 300.687 29.06C300.134 27.7467 299.857 26.34 299.857 24.84C299.857 23.34 300.134 21.94 300.687 20.64C301.234 19.34 301.994 18.1967 302.967 17.21C303.934 16.2167 305.061 15.4467 306.347 14.9C307.641 14.3467 309.037 14.07 310.537 14.07C312.037 14.07 313.434 14.3467 314.727 14.9C316.014 15.4467 317.147 16.2167 318.127 17.21C319.107 18.1967 319.871 19.3467 320.417 20.66C320.971 21.9667 321.247 23.37 321.247 24.87C321.247 26.37 320.971 27.7733 320.417 29.08C319.871 30.3933 319.114 31.54 318.147 32.52C317.174 33.5 316.044 34.27 314.757 34.83C313.464 35.39 312.077 35.67 310.597 35.67ZM310.537 32.37C311.957 32.37 313.204 32.05 314.277 31.41C315.344 30.77 316.181 29.8867 316.787 28.76C317.401 27.6267 317.707 26.32 317.707 24.84C317.707 23.74 317.534 22.7367 317.187 21.83C316.834 20.9167 316.337 20.1267 315.697 19.46C315.057 18.7867 314.304 18.27 313.437 17.91C312.564 17.55 311.597 17.37 310.537 17.37C309.137 17.37 307.904 17.6867 306.837 18.32C305.764 18.9467 304.924 19.82 304.317 20.94C303.704 22.06 303.397 23.36 303.397 24.84C303.397 25.94 303.571 26.9567 303.917 27.89C304.271 28.8167 304.764 29.61 305.397 30.27C306.024 30.93 306.777 31.4467 307.657 31.82C308.537 32.1867 309.497 32.37 310.537 32.37Z" fill="white"/>
<path d="M171.997 64.37V61.37H178.027C179.087 61.37 179.907 61.04 180.487 60.38C181.067 59.72 181.357 58.96 181.357 58.1C181.357 57.52 181.227 56.98 180.967 56.48C180.707 55.98 180.327 55.58 179.827 55.28C179.327 54.98 178.727 54.83 178.027 54.83H171.997V51.83H177.517C178.417 51.83 179.137 51.6 179.677 51.14C180.217 50.68 180.487 50 180.487 49.1C180.487 48.2 180.217 47.52 179.677 47.06C179.137 46.6 178.417 46.37 177.517 46.37H171.997V43.37H177.607C179.027 43.37 180.207 43.63 181.147 44.15C182.087 44.67 182.787 45.34 183.247 46.16C183.707 46.98 183.937 47.86 183.937 48.8C183.937 49.9 183.63 50.87 183.017 51.71C182.41 52.55 181.517 53.23 180.337 53.75L180.607 52.67C181.927 53.21 182.957 53.97 183.697 54.95C184.437 55.93 184.807 57.08 184.807 58.4C184.807 59.48 184.54 60.47 184.007 61.37C183.48 62.27 182.7 62.9967 181.667 63.55C180.64 64.0967 179.377 64.37 177.877 64.37H171.997ZM169.627 64.37V43.37H173.077V64.37H169.627ZM192.727 64.37L201.367 43.37H203.767L212.347 64.37H208.627L201.907 47.36H203.167L196.387 64.37H192.727ZM196.987 60.32V57.32H208.117V60.32H196.987ZM223.717 55.46V52.61H229.027C230.087 52.61 230.914 52.3367 231.507 51.79C232.094 51.2367 232.387 50.47 232.387 49.49C232.387 48.61 232.097 47.87 231.517 47.27C230.937 46.67 230.117 46.37 229.057 46.37H223.717V43.37H229.207C230.527 43.37 231.687 43.6367 232.687 44.17C233.687 44.6967 234.46 45.4167 235.007 46.33C235.56 47.2367 235.837 48.27 235.837 49.43C235.837 50.65 235.56 51.71 235.007 52.61C234.46 53.51 233.687 54.21 232.687 54.71C231.687 55.21 230.527 55.46 229.207 55.46H223.717ZM221.347 64.37V43.37H224.797V64.37H221.347ZM232.867 64.37L225.517 55.25L228.727 54.08L237.217 64.37H232.867ZM248.557 64.37V61.37H254.587C255.647 61.37 256.467 61.04 257.047 60.38C257.627 59.72 257.917 58.96 257.917 58.1C257.917 57.52 257.787 56.98 257.527 56.48C257.267 55.98 256.887 55.58 256.387 55.28C255.887 54.98 255.287 54.83 254.587 54.83H248.557V51.83H254.077C254.977 51.83 255.697 51.6 256.237 51.14C256.777 50.68 257.047 50 257.047 49.1C257.047 48.2 256.777 47.52 256.237 47.06C255.697 46.6 254.977 46.37 254.077 46.37H248.557V43.37H254.167C255.587 43.37 256.767 43.63 257.707 44.15C258.647 44.67 259.347 45.34 259.807 46.16C260.267 46.98 260.497 47.86 260.497 48.8C260.497 49.9 260.19 50.87 259.577 51.71C258.97 52.55 258.077 53.23 256.897 53.75L257.167 52.67C258.487 53.21 259.517 53.97 260.257 54.95C260.997 55.93 261.367 57.08 261.367 58.4C261.367 59.48 261.1 60.47 260.567 61.37C260.04 62.27 259.264 62.9967 258.237 63.55C257.204 64.0967 255.937 64.37 254.437 64.37H248.557ZM246.187 64.37V43.37H249.637V64.37H246.187ZM280.507 64.67C279.007 64.67 277.607 64.39 276.307 63.83C275.007 63.27 273.867 62.4967 272.887 61.51C271.907 60.5167 271.144 59.3667 270.597 58.06C270.044 56.7467 269.767 55.34 269.767 53.84C269.767 52.34 270.044 50.94 270.597 49.64C271.144 48.34 271.904 47.1967 272.877 46.21C273.844 45.2167 274.97 44.4467 276.257 43.9C277.55 43.3467 278.947 43.07 280.447 43.07C281.947 43.07 283.34 43.3467 284.627 43.9C285.92 44.4467 287.057 45.2167 288.037 46.21C289.017 47.1967 289.78 48.3467 290.327 49.66C290.88 50.9667 291.157 52.37 291.157 53.87C291.157 55.37 290.88 56.7733 290.327 58.08C289.78 59.3933 289.02 60.54 288.047 61.52C287.08 62.5 285.95 63.27 284.657 63.83C283.37 64.39 281.987 64.67 280.507 64.67ZM280.447 61.37C281.867 61.37 283.11 61.05 284.177 60.41C285.25 59.77 286.09 58.8867 286.697 57.76C287.31 56.6267 287.617 55.32 287.617 53.84C287.617 52.74 287.444 51.7367 287.097 50.83C286.744 49.9167 286.247 49.1267 285.607 48.46C284.967 47.7867 284.214 47.27 283.347 46.91C282.474 46.55 281.507 46.37 280.447 46.37C279.047 46.37 277.81 46.6867 276.737 47.32C275.67 47.9467 274.834 48.82 274.227 49.94C273.614 51.06 273.307 52.36 273.307 53.84C273.307 54.94 273.48 55.9567 273.827 56.89C274.18 57.8167 274.67 58.61 275.297 59.27C275.93 59.93 276.687 60.4467 277.567 60.82C278.447 61.1867 279.407 61.37 280.447 61.37ZM306.517 64.67C304.857 64.67 303.447 64.37 302.287 63.77C301.127 63.17 300.087 62.29 299.167 61.13L301.507 58.79C302.087 59.63 302.777 60.2867 303.577 60.76C304.377 61.2267 305.397 61.46 306.637 61.46C307.797 61.46 308.72 61.22 309.407 60.74C310.1 60.26 310.447 59.6 310.447 58.76C310.447 58.06 310.267 57.49 309.907 57.05C309.547 56.61 309.07 56.2467 308.477 55.96C307.89 55.6667 307.244 55.4033 306.537 55.17C305.824 54.9433 305.11 54.6867 304.397 54.4C303.69 54.1067 303.04 53.74 302.447 53.3C301.86 52.86 301.387 52.29 301.027 51.59C300.667 50.89 300.487 50 300.487 48.92C300.487 47.68 300.79 46.6267 301.397 45.76C302.01 44.8867 302.837 44.22 303.877 43.76C304.917 43.3 306.077 43.07 307.357 43.07C308.737 43.07 309.974 43.34 311.067 43.88C312.154 44.42 313.037 45.11 313.717 45.95L311.377 48.29C310.777 47.61 310.154 47.1067 309.507 46.78C308.854 46.4467 308.107 46.28 307.267 46.28C306.227 46.28 305.41 46.49 304.817 46.91C304.23 47.33 303.937 47.92 303.937 48.68C303.937 49.32 304.117 49.8367 304.477 50.23C304.837 50.6167 305.31 50.9467 305.897 51.22C306.49 51.4867 307.14 51.74 307.847 51.98C308.56 52.22 309.27 52.49 309.977 52.79C310.69 53.09 311.34 53.4767 311.927 53.95C312.52 54.4167 312.997 55.02 313.357 55.76C313.717 56.5 313.897 57.43 313.897 58.55C313.897 60.43 313.23 61.92 311.897 63.02C310.57 64.12 308.777 64.67 306.517 64.67ZM321.787 64.37L330.427 43.37H332.827L341.407 64.37H337.687L330.967 47.36H332.227L325.447 64.37H321.787ZM326.047 60.32V57.32H337.177V60.32H326.047Z" fill="white"/>
<path d="M171.757 89.6C171.104 89.6 170.524 89.4533 170.017 89.16C169.51 88.8733 169.11 88.4767 168.817 87.97C168.524 87.4633 168.377 86.8933 168.377 86.26V80.53H169.337V86.21C169.337 86.71 169.44 87.1467 169.647 87.52C169.854 87.8933 170.144 88.18 170.517 88.38C170.884 88.58 171.297 88.68 171.757 88.68C172.217 88.68 172.627 88.58 172.987 88.38C173.34 88.18 173.624 87.8967 173.837 87.53C174.05 87.1567 174.157 86.72 174.157 86.22V80.53H175.107V86.27C175.107 86.9033 174.964 87.4733 174.677 87.98C174.384 88.48 173.984 88.8733 173.477 89.16C172.97 89.4533 172.397 89.6 171.757 89.6ZM191.027 89.47L188.067 85.26H187.897L184.357 80.53H185.507L188.417 84.47H188.587L192.157 89.47H191.027ZM184.217 89.47L187.737 84.75L188.367 85.32L185.297 89.47H184.217ZM188.657 85.12L188.037 84.53L190.937 80.53H192.017L188.657 85.12ZM212.367 89.47V88.59H214.987C215.694 88.59 216.314 88.4333 216.847 88.12C217.387 87.8133 217.807 87.39 218.107 86.85C218.414 86.31 218.567 85.69 218.567 84.99C218.567 84.2833 218.414 83.6633 218.107 83.13C217.807 82.59 217.387 82.1667 216.847 81.86C216.314 81.5533 215.694 81.4 214.987 81.4H212.387V80.53H215.017C215.664 80.53 216.264 80.64 216.817 80.86C217.364 81.08 217.844 81.39 218.257 81.79C218.67 82.1967 218.99 82.67 219.217 83.21C219.444 83.75 219.557 84.3467 219.557 85C219.557 85.6333 219.444 86.2233 219.217 86.77C218.99 87.31 218.674 87.7833 218.267 88.19C217.86 88.59 217.38 88.9033 216.827 89.13C216.28 89.3567 215.684 89.47 215.037 89.47H212.367ZM211.777 89.47V80.53H212.727V89.47H211.777ZM228.987 89.47V80.53H229.937V89.47H228.987ZM229.607 89.47V88.6H234.877V89.47H229.607ZM229.607 85.31V84.47H234.457V85.31H229.607ZM229.607 81.4V80.53H234.797V81.4H229.607ZM246.717 89.6C246.024 89.6 245.424 89.4667 244.917 89.2C244.417 88.94 243.977 88.57 243.597 88.09L244.257 87.44C244.557 87.8667 244.91 88.1833 245.317 88.39C245.717 88.5967 246.197 88.7 246.757 88.7C247.324 88.7 247.787 88.57 248.147 88.31C248.5 88.05 248.677 87.69 248.677 87.23C248.677 86.8767 248.594 86.5867 248.427 86.36C248.26 86.1267 248.047 85.94 247.787 85.8C247.52 85.6533 247.227 85.5233 246.907 85.41C246.587 85.3033 246.27 85.1867 245.957 85.06C245.637 84.9333 245.344 84.7733 245.077 84.58C244.804 84.3933 244.587 84.15 244.427 83.85C244.267 83.5567 244.187 83.18 244.187 82.72C244.187 82.24 244.304 81.8267 244.537 81.48C244.777 81.1333 245.1 80.8667 245.507 80.68C245.914 80.4933 246.377 80.4 246.897 80.4C247.477 80.4 247.994 80.51 248.447 80.73C248.9 80.9567 249.28 81.26 249.587 81.64L248.937 82.29C248.657 81.9633 248.354 81.7133 248.027 81.54C247.7 81.3667 247.314 81.28 246.867 81.28C246.347 81.28 245.93 81.4 245.617 81.64C245.31 81.8867 245.157 82.2267 245.157 82.66C245.157 83 245.237 83.2733 245.397 83.48C245.557 83.6867 245.77 83.86 246.037 84C246.304 84.14 246.597 84.2633 246.917 84.37C247.23 84.4767 247.547 84.5933 247.867 84.72C248.187 84.8533 248.48 85.02 248.747 85.22C249.014 85.42 249.227 85.6733 249.387 85.98C249.554 86.2867 249.637 86.68 249.637 87.16C249.637 87.9267 249.374 88.5267 248.847 88.96C248.327 89.3867 247.617 89.6 246.717 89.6ZM259.047 89.47V80.53H259.997V89.47H259.047ZM273.927 89.59C273.294 89.59 272.704 89.4733 272.157 89.24C271.61 89.0067 271.134 88.68 270.727 88.26C270.32 87.8467 270.004 87.36 269.777 86.8C269.55 86.24 269.437 85.6367 269.437 84.99C269.437 84.3367 269.554 83.7333 269.787 83.18C270.014 82.6267 270.33 82.14 270.737 81.72C271.144 81.3 271.627 80.97 272.187 80.73C272.74 80.4967 273.34 80.38 273.987 80.38C274.707 80.38 275.37 80.5233 275.977 80.81C276.577 81.0967 277.07 81.5 277.457 82.02L276.797 82.68C276.484 82.24 276.087 81.9 275.607 81.66C275.12 81.4267 274.58 81.31 273.987 81.31C273.287 81.31 272.667 81.4667 272.127 81.78C271.594 82.1 271.177 82.5367 270.877 83.09C270.577 83.6433 270.427 84.28 270.427 85C270.427 85.7067 270.577 86.34 270.877 86.9C271.177 87.4533 271.587 87.8867 272.107 88.2C272.634 88.52 273.23 88.68 273.897 88.68C274.564 88.68 275.144 88.5433 275.637 88.27C276.124 88.0033 276.5 87.6133 276.767 87.1C277.027 86.5933 277.164 85.98 277.177 85.26L277.717 85.66H273.807V84.79H278.167V84.93C278.167 85.9367 277.987 86.7867 277.627 87.48C277.267 88.1733 276.77 88.6967 276.137 89.05C275.504 89.41 274.767 89.59 273.927 89.59ZM287.527 89.47V80.53H288.207L288.477 81.66V89.47H287.527ZM293.717 89.47L288.067 81.8L288.207 80.53L293.847 88.2L293.717 89.47ZM293.717 89.47L293.437 88.39V80.53H294.397V89.47H293.717ZM304.267 89.47V80.53H305.217V89.47H304.267ZM304.897 89.47V88.6H310.157V89.47H304.897ZM304.897 85.31V84.47H309.747V85.31H304.897ZM304.897 81.4V80.53H310.077V81.4H304.897ZM320.137 85.47V84.66H322.737C323.33 84.66 323.78 84.51 324.087 84.21C324.4 83.91 324.557 83.51 324.557 83.01C324.557 82.5233 324.4 82.1267 324.087 81.82C323.78 81.5133 323.33 81.36 322.737 81.36H320.137V80.53H322.737C323.317 80.53 323.817 80.6333 324.237 80.84C324.65 81.0533 324.967 81.3467 325.187 81.72C325.407 82.0933 325.517 82.52 325.517 83C325.517 83.4933 325.407 83.9267 325.187 84.3C324.967 84.6667 324.65 84.9533 324.237 85.16C323.817 85.3667 323.317 85.47 322.737 85.47H320.137ZM319.527 89.47V80.53H320.477V89.47H319.527ZM324.937 89.47L321.577 85.34L322.507 85.04L326.157 89.47H324.937Z" fill="white"/>
</svg>
